<?xml version="1.0" encoding="UTF-8"?>
<svg id="Sparkles" xmlns="http://www.w3.org/2000/svg" xmlns:xlink="http://www.w3.org/1999/xlink" viewBox="0 0 580 364">
  <defs>
    <linearGradient id="linear-gradient" x1="481.03" y1="208.01" x2="431.6" y2="293.62" gradientUnits="userSpaceOnUse">
      <stop offset=".53" stop-color="#688ffe"/>
      <stop offset=".71" stop-color="#648bfa"/>
      <stop offset=".86" stop-color="#5a81f0"/>
      <stop offset=".99" stop-color="#4a71df"/>
      <stop offset="1" stop-color="#4970de"/>
    </linearGradient>
    <linearGradient id="linear-gradient-2" x1="428.13" y1="330.8" x2="478.87" y2="301.51" gradientUnits="userSpaceOnUse">
      <stop offset=".33" stop-color="#f2f2f2"/>
      <stop offset=".76" stop-color="#d0d4ff"/>
    </linearGradient>
    <clipPath id="clippath">
      <path d="m488.9,244.3c23.26-6.22,12.87,30.98,9.24,32.1,0,0-7.64,1.57-18.96,3.11-16.1,2.18-1.22-32.28,9.72-35.21Z" style="fill: none;"/>
    </clipPath>
    <linearGradient id="linear-gradient-3" x1="515.43" y1="196.69" x2="399.15" y2="129.55" gradientUnits="userSpaceOnUse">
      <stop offset=".4" stop-color="#6990ff"/>
      <stop offset="1" stop-color="#809cff"/>
    </linearGradient>
    <clipPath id="clippath-1">
      <path d="m482.99,113.59c-11.4,1.85-41.81-2.98-42.01-21.26-.14-12.05,20.34-17.77,30.51,6.06,7.11,16.67,11.5,15.2,11.5,15.2Z" style="fill: none;"/>
    </clipPath>
    <linearGradient id="linear-gradient-4" x1="417.23" y1="251.86" x2="417.23" y2="282.28" gradientTransform="translate(-11.5 -13.09) rotate(1.88)" gradientUnits="userSpaceOnUse">
      <stop offset="0" stop-color="#ffc619"/>
      <stop offset=".25" stop-color="#ffd334"/>
      <stop offset=".51" stop-color="#ffde4a"/>
      <stop offset=".77" stop-color="#ffe457"/>
      <stop offset="1" stop-color="#ffe75c"/>
    </linearGradient>
    <clipPath id="clippath-2">
      <path d="m418.12,283.35c.01-3.86-9.39-8.66-21-8.7-11.62-.04-21.05,4.69-21.07,8.55,0,2.57,9.4,5.38,21.02,5.42s21.05-2.8,21.06-5.26Z" style="fill: none;"/>
    </clipPath>
  </defs>
  <path d="m160.04,284.97h-38.41v-35.99h38.41v35.99Zm-35.13-3.27h31.86v-29.45h-31.86v29.45Z" style="fill: #3442d9;"/>
  <g>
    <path d="m456.78,19.86v63.77c-42.25,28.13-76.52,6.13-76.52,6.13l-24.64,22.49,10.48-31.13c-30.69-35.51-6.04-77.35-6.04-77.35l33.84-.31h46.5c9.01,0,16.38,7.37,16.38,16.38Z" style="fill: #3442d9;"/>
    <path d="m355.62,113.89c-.31,0-.62-.09-.89-.27-.62-.41-.9-1.19-.66-1.89l10.18-30.25c-30.17-35.83-5.85-78.11-5.6-78.53.29-.5.82-.8,1.4-.81l33.84-.31h46.51c9.94,0,18.02,8.08,18.02,18.02v63.77c0,.55-.27,1.06-.73,1.36-38.42,25.58-70.89,10.24-77.2,6.79l-23.76,21.69c-.31.28-.71.43-1.1.43Zm5.42-108.48c-3.11,5.89-20.96,43.11,6.3,74.65.38.44.5,1.04.31,1.59l-8.46,25.13,19.97-18.23c.55-.5,1.36-.57,1.99-.17.08.05,8.54,5.38,21.92,7.26,12.18,1.71,31.04.84,52.08-12.9V19.86c0-8.13-6.62-14.74-14.75-14.74h-46.5l-32.86.3Z" style="fill: #3442d9;"/>
  </g>
  <path d="m124.91,284.97H52.13c-9.94,0-18.02-8.08-18.02-18.02v-17.97h90.79v35.99Zm-87.52-32.72v14.7c0,8.13,6.61,14.75,14.74,14.75h69.5v-29.45H37.39Z" style="fill: #3442d9;"/>
  <path d="m265.64,284.97h-107.24c-.9,0-1.64-.73-1.64-1.64v-32.72c0-.9.73-1.64,1.64-1.64h153.46c.9,0,1.64.73,1.64,1.64s-.73,1.64-1.64,1.64h-151.82v29.45h105.6c.9,0,1.64.73,1.64,1.64s-.73,1.64-1.64,1.64Z" style="fill: #3442d9;"/>
  <path d="m440.4,284.97c-.9,0-1.64-.73-1.64-1.64s.73-1.64,1.64-1.64c8.13,0,14.75-6.62,14.75-14.75v-16.34c0-.9.73-1.64,1.64-1.64s1.64.73,1.64,1.64v16.34c0,9.94-8.08,18.02-18.02,18.02Z" style="fill: #f2f2f2;"/>
  <path d="m312.17,252.25H35.75c-.9,0-1.64-.73-1.64-1.64V19.86c0-9.94,8.08-18.02,18.02-18.02h388.27c9.94,0,18.02,8.08,18.02,18.02v77.5c0,.9-.73,1.64-1.64,1.64s-1.64-.73-1.64-1.64V19.86c0-8.13-6.62-14.74-14.75-14.74H52.13c-8.13,0-14.74,6.61-14.74,14.74v229.11h274.78c.9,0,1.64.73,1.64,1.64s-.73,1.64-1.64,1.64Z" style="fill: #3442d9;"/>
  <rect x="455.15" y="124.48" width="3.27" height="126.13" style="fill: #f2f2f2;"/>
  <g>
    <path d="m188.09,228.68c-52.65,0-95.48-42.83-95.48-95.48s42.83-95.48,95.48-95.48,95.48,42.83,95.48,95.48-42.83,95.48-95.48,95.48Zm0-187.68c-50.84,0-92.2,41.36-92.2,92.21s41.36,92.2,92.2,92.2,92.2-41.36,92.2-92.2-41.36-92.21-92.2-92.21Z" style="fill: #91ffad;"/>
    <path d="m216.86,223.31c-18.97,0-45.3-31.67-62.77-77-9.08-23.57-14.22-47.06-14.46-66.15-.25-19.64,4.77-32.44,14.13-36.04,9.36-3.6,21.67,2.51,34.66,17.24,12.63,14.32,24.59,35.18,33.68,58.74h0c19.25,49.96,19.4,94.85.34,102.2-1.77.68-3.63,1.01-5.57,1.01Zm-57.6-176.91c-1.53,0-2.98.26-4.33.78-7.87,3.03-12.26,15.04-12.03,32.95.24,18.71,5.3,41.8,14.24,65.01,17.98,46.64,47.33,80.57,64.11,74.11,16.77-6.47,15.76-51.33-2.21-97.96h0c-8.95-23.21-20.69-43.72-33.08-57.76-9.82-11.13-19.27-17.13-26.7-17.13Z" style="fill: #91ffad;"/>
    <path d="m96.07,135.87l-2.71-1.84c35.37-52.02,93.66-79.6,155.94-73.79l-.3,3.26c-61.06-5.7-118.24,21.36-152.93,72.37Z" style="fill: #91ffad;"/>
    <rect x="94.34" y="132.7" width="188.52" height="3.27" transform="translate(-38.37 88.49) rotate(-24.04)" style="fill: #91ffad;"/>
    <path d="m133.41,205.13c-1.23,0-2.45,0-3.69-.03l.04-3.27c33.96.45,64.23-5.43,89.95-17.5,25.46-11.95,45.92-29.69,60.81-52.74l2.75,1.78c-15.22,23.57-36.14,41.72-62.17,53.93-25.23,11.84-54.72,17.84-87.7,17.84Z" style="fill: #91ffad;"/>
  </g>
  <path d="m83.6,74.5c-17.17,0-31.14-13.97-31.14-31.14s13.97-31.14,31.14-31.14,31.14,13.97,31.14,31.14-13.97,31.14-31.14,31.14Zm0-59.01c-15.37,0-27.87,12.5-27.87,27.87s12.5,27.87,27.87,27.87,27.87-12.5,27.87-27.87-12.5-27.87-27.87-27.87Z" style="fill: #91ffad;"/>
  <path d="m295.01,53.81h-36.15c-1.93,0-3.49-1.57-3.49-3.49v-21.56c0-1.92,1.57-3.49,3.49-3.49h36.15c1.92,0,3.49,1.57,3.49,3.49v21.56c0,1.92-1.57,3.49-3.49,3.49Zm-36.15-25.27c-.12,0-.22.1-.22.22v21.56c0,.12.1.22.22.22h36.15c.12,0,.22-.1.22-.22v-21.56c0-.12-.1-.22-.22-.22h-36.15Z" style="fill: #91ffad;"/>
  <rect x="54.45" y="85.24" width="8.13" height="8.98" rx="1.85" ry="1.85" style="fill: #91ffad;"/>
  <rect x="66.24" y="100.4" width="5.28" height="5.84" rx="1.85" ry="1.85" style="fill: #91ffad;"/>
  <rect x="131.87" y="36.46" width="5.28" height="5.84" rx="1.85" ry="1.85" style="fill: #91ffad;"/>
  <rect x="283.78" y="233.07" width="5.28" height="5.84" rx="1.85" ry="1.85" style="fill: #91ffad;"/>
  <rect x="116.99" y="20.59" width="8.13" height="8.98" rx="1.85" ry="1.85" style="fill: #91ffad;"/>
  <path d="m94.16,37.43h-3.27v-2.63c0-3.32-2.7-6.01-6.02-6.01s-6.01,2.7-6.01,6.01v2.63h-3.27v-2.63c0-5.12,4.17-9.29,9.29-9.29s9.3,4.17,9.3,9.29v2.63Z" style="fill: #ffc619;"/>
  <path d="m91.17,37.43h-3.27v-2.63c0-3.32-2.7-6.01-6.02-6.01s-6.01,2.7-6.01,6.01v2.63h-3.27v-2.63c0-5.12,4.17-9.29,9.29-9.29s9.3,4.17,9.3,9.29v2.63Z" style="fill: #ffe75c;"/>
  <g>
    <rect x="69.96" y="37.43" width="27.44" height="21.46" rx="1.85" ry="1.85" style="fill: #ffc619;"/>
    <path d="m95.55,60.52h-23.73c-1.93,0-3.49-1.57-3.49-3.49v-17.75c0-1.92,1.57-3.49,3.49-3.49h23.73c1.93,0,3.49,1.57,3.49,3.49v17.75c0,1.92-1.57,3.49-3.49,3.49Zm-23.73-21.46c-.12,0-.22.1-.22.22v17.75c0,.12.1.22.22.22h23.73c.12,0,.22-.1.22-.22v-17.75c0-.12-.1-.22-.22-.22h-23.73Z" style="fill: #ffc619;"/>
  </g>
  <g>
    <rect x="70.94" y="36.45" width="21.54" height="23.49" rx="1.52" ry="1.52" transform="translate(129.9 -33.51) rotate(90)" style="fill: #ffe75c;"/>
    <path d="m91.93,60.6h-20.44c-1.74,0-3.16-1.42-3.16-3.16v-18.49c0-1.74,1.42-3.16,3.16-3.16h20.44c1.74,0,3.16,1.42,3.16,3.16v18.49c0,1.74-1.42,3.16-3.16,3.16Zm-20.33-3.27h20.21v-18.26h-20.21v18.26Z" style="fill: #ffe75c;"/>
  </g>
  <rect x="264.49" y="219.45" width="8.13" height="8.98" rx="1.85" ry="1.85" style="fill: #91ffad;"/>
  <polygon points="318.44 183.43 285.92 183.43 259.96 157.48 262.28 155.16 287.27 180.16 318.44 180.16 318.44 183.43" style="fill: #91ffad;"/>
  <g>
    <path d="m334.67,153.3l-19.92,34.5c-3.63,6.28.91,14.13,8.16,14.13h39.83c7.25,0,11.78-7.85,8.16-14.13l-19.92-34.5c-3.63-6.28-12.69-6.28-16.31,0Z" style="fill: #ffc619;"/>
    <rect x="338.42" y="160.43" width="9.38" height="20.75" rx="4.69" ry="4.69" style="fill: #242145;"/>
    <rect x="338.42" y="185.65" width="9.38" height="10.19" rx="4.69" ry="4.69" style="fill: #242145;"/>
  </g>
  <path d="m99.12,238.24c-2.54,0-5.03-.89-6.99-2.5-4.69-3.86-5.37-10.81-1.52-15.5l3.63-4.41-1.97-1.62c-2.28-1.88-3.48-4.76-3.21-7.7.27-2.94,1.99-5.55,4.58-6.97l32-17.55c1.32-.72,2.8-1.1,4.28-1.1,2.82,0,5.51,1.37,7.19,3.66,1.69,2.31,2.16,5.2,1.29,7.93l-11.04,34.78c-1.18,3.71-4.59,6.21-8.49,6.21,0,0,0,0,0,0-2.05,0-4.06-.72-5.64-2.03l-1.97-1.62-3.62,4.41c-2.1,2.55-5.2,4.02-8.51,4.02Z" style="fill: #91ffad;"/>
  <path d="m128.79,187.72l-32,17.55c-1.46.8-1.65,2.82-.36,3.88l7.03,5.78-7.78,9.47c-1.57,1.91-1.29,4.72.61,6.29,1.91,1.57,4.72,1.29,6.29-.61l7.78-9.47,7.03,5.78c1.28,1.06,3.23.48,3.73-1.1l11.04-34.78c.64-2.02-1.51-3.79-3.37-2.77Z" style="fill: #242145;"/>
  <rect x="297.28" y="87.09" width="43.27" height="45.02" rx="1.85" ry="1.85"/>
  <rect x="292.14" y="82.98" width="43.27" height="45.02" rx="1.85" ry="1.85" style="fill: #eb459f;"/>
  <g>
    <rect x="311.14" y="90.17" width="4.93" height="31.84" rx="2.47" ry="2.47" transform="translate(16.84 252.83) rotate(-45)" style="fill: #f2f2f2;"/>
    <path d="m323.12,119.71c-1.1,0-2.13-.43-2.9-1.2l-19.03-19.03c-1.6-1.6-1.6-4.2,0-5.8,1.6-1.6,4.2-1.6,5.8,0l19.03,19.03c1.6,1.6,1.6,4.2,0,5.8-.78.78-1.81,1.2-2.9,1.2Zm-19.03-23.96c-.21,0-.42.08-.59.24-.32.32-.32.85,0,1.17l19.03,19.03c.21.21.46.24.59.24s.37-.03.59-.24c.32-.32.32-.85,0-1.17l-19.03-19.03c-.16-.16-.37-.24-.59-.24Z" style="fill: #f2f2f2;"/>
  </g>
  <g>
    <rect x="311.14" y="90.17" width="4.93" height="31.84" rx="2.47" ry="2.47" transform="translate(166.87 -190.68) rotate(45)" style="fill: #f2f2f2;"/>
    <path d="m304.09,119.71c-1.05,0-2.1-.4-2.9-1.2-1.6-1.6-1.6-4.2,0-5.8l19.03-19.03c.77-.78,1.8-1.2,2.9-1.2s2.13.43,2.9,1.2h0c1.6,1.6,1.6,4.2,0,5.8l-19.03,19.03c-.8.8-1.85,1.2-2.9,1.2Zm19.03-23.96c-.13,0-.38.03-.58.24l-19.03,19.03c-.32.32-.32.85,0,1.17.32.32.85.32,1.17,0l19.03-19.03c.32-.32.32-.85,0-1.17-.21-.21-.46-.24-.58-.24Z" style="fill: #f2f2f2;"/>
  </g>
  <path d="m140.99,84.77h-20.84l-15.59-20.36c-.55-.72-.41-1.75.3-2.29.72-.55,1.74-.41,2.29.3l14.61,19.08h19.22c.9,0,1.64.73,1.64,1.64s-.73,1.64-1.64,1.64Z" style="fill: #91ffad;"/>
  <polygon points="272.16 66.95 253.31 66.95 253.31 63.67 269.8 63.67 273.74 51.85 276.85 52.89 272.16 66.95" style="fill: #91ffad;"/>
  <path d="m276.05,44.45c-1.17,0-2.31-.37-3.19-1.1-.34-.28-2.03-1.59-4-3.1q-13.49-10.38-13.49-11.51c0-1.56,1.05-3.31,3.37-3.49h0c.22-.02,2.96-.03,33.15,0h3.11c3.49,0,3.49,2.63,3.49,3.49q0,1.07-9.51,7.85c-4.59,3.28-9.15,6.48-9.7,6.85-.98.67-2.13,1-3.25,1Zm-16.88-15.93c2.34,1.94,8.47,6.66,11.69,9.13,2.37,1.83,3.73,2.87,4.1,3.18.6.5,1.69.46,2.5-.09,1.15-.79,13.25-9.32,17.1-12.21h-2.66c-7.6,0-30.06-.03-32.72,0Z" style="fill: #91ffad;"/>
  <path d="m285.97,53.8c-4.91,0-12.44,0-24-.01h-3.11c-3.49,0-3.49-2.63-3.49-3.5q0-1.11,14.87-11.66l1.89,2.67c-6.6,4.68-10.89,7.76-12.81,9.21h2.66c7.6,0,30.07.03,32.73,0-2.25-1.87-8.04-6.33-11.4-8.92l-1.6-1.24,2-2.59,1.6,1.24q13.2,10.17,13.2,11.29c0,1.56-1.06,3.32-3.37,3.49-.13,0-1.23.02-9.16.02Z" style="fill: #91ffad;"/>
  <g>
    <circle cx="406.81" cy="46.01" r="23.19" style="fill: #ffc619;"/>
    <path d="m390.7,43.92c-.1-3.75,4.31-6.52,7.63-4.84.41.22.8.47,1.14.78.78.67.48,2.02-.49,2.31-.7.27-1.48.29-2.13.49-1.67.32-2.72,1.47-4.14,2.36-.83.57-2.03-.11-2-1.11h0Z" style="fill: #242145;"/>
    <path d="m410.91,36.91c1.36-3.33,6.15-4.17,8.65-1.7.85.77,1.56,2.19.3,2.94-.59.33-1.4.16-1.99.09-1.22-.13-2.17-.19-3.38.03-.65.14-1.54.39-2.27.42-.95.13-1.72-.92-1.31-1.78h0Z" style="fill: #242145;"/>
    <path d="m411.05,58.33c6.86-1.77,8.86-7.78,8.86-10.25,0-1.79-1.77-4.55-5.16-2.7-3.39,1.85-6.78,3.93-13.94,3.31-3.5-.3-4.86,2.45-3.54,5.08,1.62,3.24,7.91,6.06,13.79,4.55Z" style="fill: #242145;"/>
  </g>
  <path d="m277.97,295.61c-5.75,6.83-8.01,21.13,2.67,31.98,19.9,20.22,67.69,38.76,164.76,31.2,61.31-4.77,90.08-18.96,102.51-26.21,24.65-14.38,21.96-30.52,18.9-40.27l-288.84,3.29Z" style="fill: #1e298c;"/>
  <path d="m340.93,268.49c-39.43-.83-70.8,17.41-62.86,39.44,8.32,23.11,70.26,47.76,167.33,39.75,97.07-8.01,133.43-40.06,118.95-60.09-10.84-14.99-45.91-14.79-76.42-11.09-21.09,2.56-48.69,8.32-85.36.62-9.28-1.95,10.16-20.41,3.44-21.72-10.65-2.08-47.12,13.47-65.07,13.1Z" style="fill: #3043e2;"/>
  <path d="m426.47,228.12l19.9-21.65c-13.94-5.06-22.17-9.13-34.5-1.15-22.23,14.39-41.2,38.31-65.11,48.63-.36.16-1.62.39-3.16.99-17.56,3.7-24.04,12.22-24.04,17.56,0,5.89,19.29,10.79,45.06,4.42,25-6.47,58.5-24.24,61.84-48.79Z" style="fill: #698eff;"/>
  <path d="m420.03,281.17c-2.68-.36-24.93-2.82-24.04-12.69,1.64-18.18,18.28-46.69,28.04-53,17.97-11.63,46.86-10.78,56.61-4.31,1.41.94,9.34,1.66,10.45,2.67,1.9,1.73,2.24,4.7,4.85,10.89,9.95,23.54,5.83,50.55,2.19,51.67,0,0-44.87,9.24-78.11,4.78Z" style="fill: url(#linear-gradient);"/>
  <path d="m473.34,326.31c-.34,2.42-.68,4.47-.98,5.89-.22,1.03-.91,1.89-1.96,1.84-7.78-.32-34.78-2.24-41.56-3.62-1.77-.36-1.54-.92-.85-2.7,4.21-10.86,12.92-30.2,14.33-33.05.11-.23,3.96-.15,9,.04,9.88.39,24.36,1.27,24.36,1.27.74,2.56-.84,19.86-2.34,30.32Z" style="fill: url(#linear-gradient-2);"/>
  <path d="m455.46,325.85c6.86.85,34.74-.54,43.06-3.31,1.16-.27-8.13-37.93-9.48-38.36-.91-.29-37.49,3.76-37.59,4.08,1.77,11.86,3.47,32.51,4.01,37.59Z" style="fill: #f2f2f2;"/>
  <path d="m481.35,224.73c2.93-10.63,9.86-12.12,23.42-6.16,13.56,5.96,24.39,19.59,28.35,30.61,7.6,21.16.51,33.23-2.77,38.36-3.29,5.14-19.2,20.48-37.49,17.92s-8.09-16.64-3.11-25.78c1.61-2.96,8.04-14.64,8.86-16.28.67-1.34-6.01-10.01-11.71-16.02-5.34-5.63-7.26-16.44-5.55-22.65Z" style="fill: #698eff;"/>
  <g style="clip-path: url(#clippath); fill: none;">
    <path d="m487.82,281.37c-.27,0-.54-.07-.79-.21-.79-.44-1.07-1.44-.63-2.23l8.94-16.07-8.28-10.42c-.56-.71-.45-1.74.26-2.3.71-.56,1.74-.45,2.3.26l8.96,11.27c.41.52.47,1.24.15,1.81l-9.48,17.03c-.3.54-.86.84-1.43.84Z" style="fill: #3d58d9;"/>
  </g>
  <path d="m426.57,204.25c-1.09,1.29-1.92,9.51,12.92,12.63,19.93,4.18,40.15-1.83,40.15-1.83l-53.07-10.79Z" style="fill: #3d58d9;"/>
  <path d="m467.58,117.88c55.25,12.49,61.02,18.84,53.02,57.51-9.35,45.22-20.1,45.68-75.71,33.75-47.39-10.17-63.23-23.36-52.12-61.31,11.11-37.95,20.64-42.2,74.8-29.95Z" style="fill: url(#linear-gradient-3);"/>
  <g>
    <path d="m538.1,184.69c-7.63,28.14-17.14,25.83-33.4,21.88l7.63-28.14,7.63-28.14c16.27,3.95,25.77,6.26,18.14,34.4Z" style="fill: #698eff;"/>
    <path d="m526.03,181.88c-3.51,12.85-5.46,12.86-16.48,10.03l3.64-13.33,3.64-13.33c11.02,2.83,12.71,3.77,9.2,16.63Z" style="fill: #b5caff;"/>
  </g>
  <path d="m476.42,163.79c-.95,5.12-3.63,15.21-6.93,20.8-3.5,5.92-9.45,8.76-18.95,8.4-7.32-.28-27.43-4.92-35.75-10.01-13.71-8.4-5.93-29.12-3.77-33.97,3.18-7.15,7.38-11.04,14.33-11.2,11.55-.28,34.06,6.52,41.93,10.19,7.62,3.55,10.25,9.86,9.14,15.81Z" style="fill: #b5caff;"/>
  <path d="m451.86,171.69c-3.49-.8-9.54-2.38-12.78-1.61-2.96.71-3.82,4.96-1.72,6.74,2.18,1.85,6.68,3.37,11.66,3.76,3.64.28,6.65-.05,7.72-3.2,1.17-3.47-2.17-5.08-4.88-5.7Z" style="fill: #698eff;"/>
  <path d="m416.63,163.02c3.11.71,8.54,1.83,10.79,3.85,2.05,1.84.77,7.16-2.82,6.91-3.41-.24-6.15-.86-9.27-1.9-2.08-.69-3.55-2.16-3.39-5.47.15-3.01,2.28-3.94,4.7-3.39Z" style="fill: #698eff;"/>
  <ellipse cx="485.81" cy="163.97" rx="6.07" ry="4.92" transform="translate(163.28 562.56) rotate(-69.67)" style="fill: #231f20;"/>
  <ellipse cx="404.93" cy="143.77" rx="6.07" ry="4.27" transform="translate(129.44 473.52) rotate(-69.67)" style="fill: #231f20;"/>
  <path d="m467.01,195.5c-5.22,2.38-5.53,4.14-5.3,5.01.33,1.25,1.22,2.46,2.3,3.47,0,0,0,0,0,.01.03.03.07.06.1.09,0,0,0,0,0,0h0c1.63,1.48,3.68,2.51,5,2.47,3.94-.12,7.64-4.53,8.48-9.53h0s0-.06,0-.09c.02-.13.05-.27.07-.4,0,0-.02,0-.03,0,.05-.4.11-.79.12-1.19.13-4.16-5.16-2.39-10.77.17Z" style="fill: #ffaed7;"/>
  <path d="m477.03,113.95c8.99.05,22.4-2.06,28.05-12.95,5.3-10.22-13.92-16.18-32.06-2.25-5.53,4.25-13.68,10.47-13.68,10.47,0,0,9.74,4.68,17.7,4.72Z" style="fill: #29cc7a;"/>
  <path d="m468.37,111.62c-.86,0-1.58-.67-1.63-1.53-.06-.9.63-1.68,1.53-1.74h0c.21-.01,21.23-1.69,35.97-25.97.47-.77,1.47-1.02,2.25-.55.77.47,1.02,1.48.55,2.25-15.67,25.8-37.63,27.48-38.56,27.53-.04,0-.07,0-.11,0Z" style="fill: #0aa348;"/>
  <path d="m482.99,113.59c-11.4,1.85-41.81-2.98-42.01-21.26-.14-12.05,20.34-17.77,30.51,6.06,7.11,16.67,11.5,15.2,11.5,15.2Z" style="fill: #55f186;"/>
  <g style="clip-path: url(#clippath-1); fill: none;">
    <path d="m487.88,120.37c-8.87,0-22.62-1.58-30.18-10.44-5.91-6.94-6.72-14.55-6.75-14.87-.09-.9.57-1.7,1.47-1.79.88-.1,1.7.57,1.79,1.47h0c0,.07.76,6.95,5.99,13.07,10.34,12.13,35.31,8.88,35.56,8.84.9-.12,1.72.5,1.84,1.4.12.9-.5,1.72-1.4,1.84-.38.05-3.68.49-8.32.49Z" style="fill: #008d3c;"/>
  </g>
  <g>
    <path d="m321.2,293.79l60.28,10.9c.89.15,1.23.31,1.6.84l9,13.08c.23.71-.87,1.55-2,1.54l-67.54-14.38c-1.4-.13-2.01-.48-2.42-1.15l.11-9.1c-.08-.89-.17-1.74.96-1.73Z" style="fill: #d0d4ff;"/>
    <path d="m381.17,304.68l-60.08-10.9c-.47-.14-.85.02-1.01.39l-10.73,14.6c-.31.76.44,2,1.38,2.28l57.58,12.5c1.18.21,1.75-.05,2.21-.72l11.58-16.74c.31-.76.02-1.13-.92-1.41Z" style="fill: #f2f2f2;"/>
  </g>
  <path d="m86.15,45.22c0-2.52-2.04-4.56-4.56-4.56s-4.56,2.04-4.56,4.56c0,1.78,1.03,3.31,2.52,4.06l-1.03,6.12c0,1.12,1.95.92,3.07.92s3.4.12,3.4-1l-1.35-6.04c1.49-.75,2.52-2.28,2.52-4.06Z" style="fill: #242145;"/>
  <g>
    <path d="m418.12,283.35c.01-3.86-9.39-8.66-21-8.7-11.62-.04-21.05,4.69-21.07,8.55,0,2.57,9.4,5.38,21.02,5.42s21.05-2.8,21.06-5.26Z" style="fill: #ffe75c;"/>
    <rect x="393.21" y="252.3" width="7.09" height="30.43" rx="3.54" ry="3.54" transform="translate(.98 -1.44) rotate(.21)" style="fill: url(#linear-gradient-4);"/>
    <path d="m433.38,232.74c-1.46,6.88-4.18,12.47-12.65,12.44-8.25-.03-14.93-4.23-14.9-12.48.03-8.25,2.31-11.59,10.09-14.33,8.73-3.08,19.13,6.53,17.46,14.38Z" style="fill: #ffc619;"/>
    <path d="m380.38,258.18c.45,3.31,4.99,6.3,6.53,5.88,8.1-2.2,26.59-17.77,29.73-20.53,2.71-2.38,4.24-4.22,3.65-6.47-1.11-4.24-4.81-7.48-9.14-7.66-1.39-.06-3.77,2.31-6.41,4.44-2.09,1.69-24.7,21.81-24.36,24.33Z" style="fill: #ffe75c;"/>
    <ellipse cx="384.48" cy="260.18" rx="3.7" ry="4.89" transform="translate(-70.64 351.76) rotate(-45.46)" style="fill: #ffc619;"/>
  </g>
  <g style="clip-path: url(#clippath-2); fill: none;">
    <path d="m395.12,283.26h0c-2.86,0-5.17-2.58-5.16-5.72v-2.77c-.02-.9.71-1.64,1.62-1.64h0c.9,0,1.63.73,1.64,1.63v2.78c0,1.33.88,2.45,1.91,2.45.9,0,1.63.74,1.63,1.64,0,.9-.74,1.63-1.64,1.63Z" style="fill: #ffc619;"/>
  </g>
  <path d="m568.44,192.21c-1.39-.88-2.33-2.32-2.58-3.94l-.43-2.76c-.02-.14-.14-.24-.28-.24h0c-.14,0-.25.1-.27.24l-.4,2.77c-.23,1.63-1.15,3.07-2.53,3.97l-.36.23c-.08.05-.13.14-.13.23v.02c0,.09.05.18.13.23l.36.23c1.39.88,2.33,2.32,2.58,3.94l.43,2.76c.02.14.14.24.28.24h0c.14,0,.25-.1.27-.24l.4-2.77c.23-1.63,1.15-3.07,2.53-3.97l.36-.23c.08-.05.13-.14.13-.23v-.02c0-.09-.05-.18-.13-.23l-.36-.23Z" style="fill: #ffc300;"/>
  <path d="m40.38,311.35c-1.74-1.11-2.93-2.91-3.24-4.95l-.54-3.47c-.03-.17-.17-.3-.35-.3h0c-.17,0-.32.13-.34.3l-.5,3.48c-.29,2.04-1.45,3.86-3.18,4.99l-.45.29c-.1.07-.16.18-.16.3v.02c0,.12.06.23.16.29l.45.29c1.74,1.11,2.93,2.91,3.24,4.95l.54,3.47c.03.17.17.3.35.3h0c.17,0,.32-.13.34-.3l.5-3.48c.29-2.04,1.45-3.86,3.18-4.99l.45-.29c.1-.07.16-.18.16-.3v-.02c0-.12-.06-.23-.16-.29l-.45-.29Z" style="fill: #ffacd7;"/>
  <path d="m25.41,294.53c-2.85-1.81-4.78-4.76-5.3-8.1l-.89-5.68c-.04-.28-.29-.49-.57-.48h0c-.28,0-.52.21-.56.49l-.81,5.69c-.48,3.34-2.37,6.32-5.2,8.17l-.73.48c-.16.11-.26.29-.26.48v.04c0,.19.1.37.27.48l.74.47c2.85,1.81,4.78,4.76,5.3,8.1l.89,5.68c.04.28.29.49.57.48h0c.28,0,.52-.21.56-.49l.81-5.69c.48-3.34,2.37-6.32,5.2-8.17l.73-.48c.16-.11.26-.29.26-.48v-.04c0-.19-.1-.37-.27-.48l-.74-.47Z" style="fill: #57f287;"/>
  <path d="m558.63,212.35c-2.5-1.59-4.2-4.18-4.65-7.1l-.78-4.98c-.04-.25-.25-.43-.5-.42h0c-.25,0-.46.18-.49.43l-.71,4.99c-.42,2.93-2.08,5.54-4.56,7.16l-.64.42c-.14.09-.23.25-.23.42v.03c0,.17.09.33.23.42l.65.41c2.5,1.59,4.2,4.18,4.65,7.1l.78,4.98c.04.25.25.43.5.42h0c.25,0,.46-.18.49-.43l.71-4.99c.42-2.93,2.08-5.54,4.56-7.16l.64-.42c.14-.09.23-.25.23-.42v-.03c0-.17-.09-.33-.23-.42l-.65-.41Z" style="fill: #ffe75c;"/>
  <path d="m490.33,21.11c-2-1.27-3.36-3.35-3.73-5.69l-.62-3.99c-.03-.2-.2-.34-.4-.34h0c-.2,0-.37.15-.4.35l-.57,4c-.34,2.35-1.67,4.44-3.66,5.74l-.52.34c-.11.07-.18.2-.18.34v.02c0,.14.07.26.19.34l.52.33c2,1.27,3.36,3.35,3.73,5.69l.62,3.99c.03.2.2.34.4.34h0c.2,0,.37-.15.4-.35l.57-4c.34-2.35,1.67-4.44,3.66-5.74l.52-.34c.11-.07.18-.2.18-.34v-.02c0-.14-.07-.26-.19-.34l-.52-.33Z" style="fill: #00d071;"/>
  <path d="m517.08,40.12c-2.29-1.46-3.85-3.83-4.27-6.51l-.71-4.57c-.04-.22-.23-.39-.46-.39h0c-.23,0-.42.17-.45.39l-.66,4.58c-.38,2.69-1.91,5.08-4.18,6.57l-.59.39c-.13.09-.21.23-.21.39v.03c0,.16.08.3.21.39l.6.38c2.29,1.46,3.85,3.83,4.27,6.51l.71,4.57c.04.22.23.39.46.39h0c.23,0,.42-.17.45-.39l.66-4.58c.38-2.69,1.91-5.08,4.18-6.57l.59-.39c.13-.09.21-.23.21-.39v-.03c0-.16-.08-.3-.21-.39l-.6-.38Z" style="fill: #ffc300;"/>
</svg>